<svg width="54" height="26" viewBox="0 0 54 26" fill="none" xmlns="http://www.w3.org/2000/svg">
<circle cx="27" cy="7" r="7" fill="#141623"/>
<path d="M30 7.22222C30 7.4285 29.9298 7.62633 29.8047 7.77219C29.6797 7.91806 29.5101 8 29.3333 8H25.3333L24 11V4.77778C24 4.5715 24.0702 4.37367 24.1953 4.22781C24.3203 4.08194 24.4899 4 24.6667 4H29.3333C29.5101 4 29.6797 4.08194 29.8047 4.22781C29.9298 4.37367 30 4.5715 30 4.77778V7.22222Z" fill="#364FC7" stroke="#364FC7" stroke-width="2" stroke-linecap="round" stroke-linejoin="round"/>
<path d="M3.636 18.86C3.968 18.86 4.26 18.816 4.512 18.728C4.768 18.64 4.982 18.518 5.154 18.362C5.33 18.202 5.462 18.012 5.55 17.792C5.638 17.572 5.682 17.33 5.682 17.066C5.682 16.518 5.512 16.09 5.172 15.782C4.836 15.474 4.324 15.32 3.636 15.32H2.256V18.86H3.636ZM3.636 14.402C4.18 14.402 4.652 14.466 5.052 14.594C5.456 14.718 5.79 14.896 6.054 15.128C6.318 15.36 6.514 15.64 6.642 15.968C6.774 16.296 6.84 16.662 6.84 17.066C6.84 17.466 6.77 17.832 6.63 18.164C6.49 18.496 6.284 18.782 6.012 19.022C5.744 19.262 5.41 19.45 5.01 19.586C4.614 19.718 4.156 19.784 3.636 19.784H2.256V23H1.098V14.402H3.636ZM8.46984 18.14C8.66184 17.724 8.89784 17.4 9.17784 17.168C9.45784 16.932 9.79984 16.814 10.2038 16.814C10.3318 16.814 10.4538 16.828 10.5698 16.856C10.6898 16.884 10.7958 16.928 10.8878 16.988L10.8098 17.786C10.7858 17.886 10.7258 17.936 10.6298 17.936C10.5738 17.936 10.4918 17.924 10.3838 17.9C10.2758 17.876 10.1538 17.864 10.0178 17.864C9.82584 17.864 9.65384 17.892 9.50184 17.948C9.35384 18.004 9.21984 18.088 9.09984 18.2C8.98384 18.308 8.87784 18.444 8.78184 18.608C8.68984 18.768 8.60584 18.952 8.52984 19.16V23H7.45584V16.922H8.06784C8.18384 16.922 8.26384 16.944 8.30784 16.988C8.35184 17.032 8.38184 17.108 8.39784 17.216L8.46984 18.14ZM13.6628 16.826C14.1068 16.826 14.5068 16.9 14.8628 17.048C15.2188 17.196 15.5228 17.406 15.7748 17.678C16.0268 17.95 16.2188 18.28 16.3508 18.668C16.4868 19.052 16.5548 19.482 16.5548 19.958C16.5548 20.438 16.4868 20.87 16.3508 21.254C16.2188 21.638 16.0268 21.966 15.7748 22.238C15.5228 22.51 15.2188 22.72 14.8628 22.868C14.5068 23.012 14.1068 23.084 13.6628 23.084C13.2148 23.084 12.8108 23.012 12.4508 22.868C12.0948 22.72 11.7908 22.51 11.5388 22.238C11.2868 21.966 11.0928 21.638 10.9568 21.254C10.8248 20.87 10.7588 20.438 10.7588 19.958C10.7588 19.482 10.8248 19.052 10.9568 18.668C11.0928 18.28 11.2868 17.95 11.5388 17.678C11.7908 17.406 12.0948 17.196 12.4508 17.048C12.8108 16.9 13.2148 16.826 13.6628 16.826ZM13.6628 22.25C14.2628 22.25 14.7108 22.05 15.0068 21.65C15.3028 21.246 15.4508 20.684 15.4508 19.964C15.4508 19.24 15.3028 18.676 15.0068 18.272C14.7108 17.868 14.2628 17.666 13.6628 17.666C13.3588 17.666 13.0928 17.718 12.8648 17.822C12.6408 17.926 12.4528 18.076 12.3008 18.272C12.1528 18.468 12.0408 18.71 11.9648 18.998C11.8928 19.282 11.8568 19.604 11.8568 19.964C11.8568 20.684 12.0048 21.246 12.3008 21.65C12.6008 22.05 13.0548 22.25 13.6628 22.25ZM17.4294 23V16.922H18.0714C18.2234 16.922 18.3174 16.996 18.3534 17.144L18.4314 17.768C18.6554 17.492 18.9074 17.266 19.1874 17.09C19.4674 16.914 19.7914 16.826 20.1594 16.826C20.5674 16.826 20.8974 16.94 21.1494 17.168C21.4054 17.396 21.5894 17.704 21.7014 18.092C21.7894 17.872 21.9014 17.682 22.0374 17.522C22.1774 17.362 22.3334 17.23 22.5054 17.126C22.6774 17.022 22.8594 16.946 23.0514 16.898C23.2474 16.85 23.4454 16.826 23.6454 16.826C23.9654 16.826 24.2494 16.878 24.4974 16.982C24.7494 17.082 24.9614 17.23 25.1334 17.426C25.3094 17.622 25.4434 17.864 25.5354 18.152C25.6274 18.436 25.6734 18.762 25.6734 19.13V23H24.5994V19.13C24.5994 18.654 24.4954 18.294 24.2874 18.05C24.0794 17.802 23.7794 17.678 23.3874 17.678C23.2114 17.678 23.0434 17.71 22.8834 17.774C22.7274 17.834 22.5894 17.924 22.4694 18.044C22.3494 18.164 22.2534 18.316 22.1814 18.5C22.1134 18.68 22.0794 18.89 22.0794 19.13V23H21.0054V19.13C21.0054 18.642 20.9074 18.278 20.7114 18.038C20.5154 17.798 20.2294 17.678 19.8534 17.678C19.5894 17.678 19.3454 17.75 19.1214 17.894C18.8974 18.034 18.6914 18.226 18.5034 18.47V23H17.4294ZM27.8906 21.536C28.0866 21.8 28.3006 21.986 28.5326 22.094C28.7646 22.202 29.0246 22.256 29.3126 22.256C29.8806 22.256 30.3166 22.054 30.6206 21.65C30.9246 21.246 31.0766 20.67 31.0766 19.922C31.0766 19.526 31.0406 19.186 30.9686 18.902C30.9006 18.618 30.8006 18.386 30.6686 18.206C30.5366 18.022 30.3746 17.888 30.1826 17.804C29.9906 17.72 29.7726 17.678 29.5286 17.678C29.1806 17.678 28.8746 17.758 28.6106 17.918C28.3506 18.078 28.1106 18.304 27.8906 18.596V21.536ZM27.8366 17.864C28.0926 17.548 28.3886 17.294 28.7246 17.102C29.0606 16.91 29.4446 16.814 29.8766 16.814C30.2286 16.814 30.5466 16.882 30.8306 17.018C31.1146 17.15 31.3566 17.348 31.5566 17.612C31.7566 17.872 31.9106 18.196 32.0186 18.584C32.1266 18.972 32.1806 19.418 32.1806 19.922C32.1806 20.37 32.1206 20.788 32.0006 21.176C31.8806 21.56 31.7066 21.894 31.4786 22.178C31.2546 22.458 30.9786 22.68 30.6506 22.844C30.3266 23.004 29.9606 23.084 29.5526 23.084C29.1806 23.084 28.8606 23.022 28.5926 22.898C28.3286 22.77 28.0946 22.594 27.8906 22.37V25.058H26.8166V16.922H27.4586C27.6106 16.922 27.7046 16.996 27.7406 17.144L27.8366 17.864ZM34.8472 23.096C34.3672 23.096 33.9972 22.962 33.7372 22.694C33.4812 22.426 33.3532 22.04 33.3532 21.536V17.816H32.6212C32.5572 17.816 32.5032 17.798 32.4592 17.762C32.4152 17.722 32.3932 17.662 32.3932 17.582V17.156L33.3892 17.03L33.6352 15.152C33.6472 15.092 33.6732 15.044 33.7132 15.008C33.7572 14.968 33.8132 14.948 33.8812 14.948H34.4212V17.042H36.1792V17.816H34.4212V21.464C34.4212 21.72 34.4832 21.91 34.6072 22.034C34.7312 22.158 34.8912 22.22 35.0872 22.22C35.1992 22.22 35.2952 22.206 35.3752 22.178C35.4592 22.146 35.5312 22.112 35.5912 22.076C35.6512 22.04 35.7012 22.008 35.7412 21.98C35.7852 21.948 35.8232 21.932 35.8552 21.932C35.9112 21.932 35.9612 21.966 36.0052 22.034L36.3172 22.544C36.1332 22.716 35.9112 22.852 35.6512 22.952C35.3912 23.048 35.1232 23.096 34.8472 23.096ZM39.5919 18.86C39.9239 18.86 40.2159 18.816 40.4679 18.728C40.7239 18.64 40.9379 18.518 41.1099 18.362C41.2859 18.202 41.4179 18.012 41.5059 17.792C41.5939 17.572 41.6379 17.33 41.6379 17.066C41.6379 16.518 41.4679 16.09 41.1279 15.782C40.7919 15.474 40.2799 15.32 39.5919 15.32H38.2119V18.86H39.5919ZM39.5919 14.402C40.1359 14.402 40.6079 14.466 41.0079 14.594C41.4119 14.718 41.7459 14.896 42.0099 15.128C42.2739 15.36 42.4699 15.64 42.5979 15.968C42.7299 16.296 42.7959 16.662 42.7959 17.066C42.7959 17.466 42.7259 17.832 42.5859 18.164C42.4459 18.496 42.2399 18.782 41.9679 19.022C41.6999 19.262 41.3659 19.45 40.9659 19.586C40.5699 19.718 40.1119 19.784 39.5919 19.784H38.2119V23H37.0539V14.402H39.5919ZM44.4258 18.14C44.6178 17.724 44.8538 17.4 45.1338 17.168C45.4138 16.932 45.7558 16.814 46.1598 16.814C46.2878 16.814 46.4098 16.828 46.5258 16.856C46.6458 16.884 46.7518 16.928 46.8438 16.988L46.7658 17.786C46.7418 17.886 46.6818 17.936 46.5858 17.936C46.5298 17.936 46.4478 17.924 46.3398 17.9C46.2318 17.876 46.1098 17.864 45.9738 17.864C45.7818 17.864 45.6098 17.892 45.4578 17.948C45.3098 18.004 45.1758 18.088 45.0558 18.2C44.9398 18.308 44.8338 18.444 44.7378 18.608C44.6458 18.768 44.5618 18.952 44.4858 19.16V23H43.4118V16.922H44.0238C44.1398 16.922 44.2198 16.944 44.2638 16.988C44.3078 17.032 44.3378 17.108 44.3538 17.216L44.4258 18.14ZM49.6188 16.826C50.0628 16.826 50.4628 16.9 50.8188 17.048C51.1748 17.196 51.4788 17.406 51.7308 17.678C51.9828 17.95 52.1748 18.28 52.3068 18.668C52.4428 19.052 52.5108 19.482 52.5108 19.958C52.5108 20.438 52.4428 20.87 52.3068 21.254C52.1748 21.638 51.9828 21.966 51.7308 22.238C51.4788 22.51 51.1748 22.72 50.8188 22.868C50.4628 23.012 50.0628 23.084 49.6188 23.084C49.1708 23.084 48.7668 23.012 48.4068 22.868C48.0508 22.72 47.7468 22.51 47.4948 22.238C47.2428 21.966 47.0488 21.638 46.9128 21.254C46.7808 20.87 46.7148 20.438 46.7148 19.958C46.7148 19.482 46.7808 19.052 46.9128 18.668C47.0488 18.28 47.2428 17.95 47.4948 17.678C47.7468 17.406 48.0508 17.196 48.4068 17.048C48.7668 16.9 49.1708 16.826 49.6188 16.826ZM49.6188 22.25C50.2188 22.25 50.6668 22.05 50.9628 21.65C51.2588 21.246 51.4068 20.684 51.4068 19.964C51.4068 19.24 51.2588 18.676 50.9628 18.272C50.6668 17.868 50.2188 17.666 49.6188 17.666C49.3148 17.666 49.0488 17.718 48.8208 17.822C48.5968 17.926 48.4088 18.076 48.2568 18.272C48.1088 18.468 47.9968 18.71 47.9208 18.998C47.8488 19.282 47.8128 19.604 47.8128 19.964C47.8128 20.684 47.9608 21.246 48.2568 21.65C48.5568 22.05 49.0108 22.25 49.6188 22.25Z" fill="#141623"/>
</svg>
