<svg width="71" height="15" viewBox="0 0 71 15" fill="none" xmlns="http://www.w3.org/2000/svg">
<circle cx="7" cy="7" r="7" fill="#F0F5FF"/>
<path d="M10 7.22222C10 7.4285 9.92976 7.62633 9.80473 7.77219C9.67971 7.91806 9.51014 8 9.33333 8H5.33333L4 11V4.77778C4 4.5715 4.07023 4.37367 4.19526 4.22781C4.32028 4.08194 4.48985 4 4.66666 4H9.33333C9.51014 4 9.67971 4.08194 9.80473 4.22781C9.92976 4.37367 10 4.5715 10 4.77778V7.22222Z" fill="#364FC7" stroke="#364FC7" stroke-width="2" stroke-linecap="round" stroke-linejoin="round"/>
<path d="M19.636 7.86C19.968 7.86 20.26 7.816 20.512 7.728C20.768 7.64 20.982 7.518 21.154 7.362C21.33 7.202 21.462 7.012 21.55 6.792C21.638 6.572 21.682 6.33 21.682 6.066C21.682 5.518 21.512 5.09 21.172 4.782C20.836 4.474 20.324 4.32 19.636 4.32H18.256V7.86H19.636ZM19.636 3.402C20.18 3.402 20.652 3.466 21.052 3.594C21.456 3.718 21.79 3.896 22.054 4.128C22.318 4.36 22.514 4.64 22.642 4.968C22.774 5.296 22.84 5.662 22.84 6.066C22.84 6.466 22.77 6.832 22.63 7.164C22.49 7.496 22.284 7.782 22.012 8.022C21.744 8.262 21.41 8.45 21.01 8.586C20.614 8.718 20.156 8.784 19.636 8.784H18.256V12H17.098V3.402H19.636ZM24.4698 7.14C24.6618 6.724 24.8978 6.4 25.1778 6.168C25.4578 5.932 25.7998 5.814 26.2038 5.814C26.3318 5.814 26.4538 5.828 26.5698 5.856C26.6898 5.884 26.7958 5.928 26.8878 5.988L26.8098 6.786C26.7858 6.886 26.7258 6.936 26.6298 6.936C26.5738 6.936 26.4918 6.924 26.3838 6.9C26.2758 6.876 26.1538 6.864 26.0178 6.864C25.8258 6.864 25.6538 6.892 25.5018 6.948C25.3538 7.004 25.2198 7.088 25.0998 7.2C24.9838 7.308 24.8778 7.444 24.7818 7.608C24.6898 7.768 24.6058 7.952 24.5298 8.16V12H23.4558V5.922H24.0678C24.1838 5.922 24.2638 5.944 24.3078 5.988C24.3518 6.032 24.3818 6.108 24.3978 6.216L24.4698 7.14ZM29.6628 5.826C30.1068 5.826 30.5068 5.9 30.8628 6.048C31.2188 6.196 31.5228 6.406 31.7748 6.678C32.0268 6.95 32.2188 7.28 32.3508 7.668C32.4868 8.052 32.5548 8.482 32.5548 8.958C32.5548 9.438 32.4868 9.87 32.3508 10.254C32.2188 10.638 32.0268 10.966 31.7748 11.238C31.5228 11.51 31.2188 11.72 30.8628 11.868C30.5068 12.012 30.1068 12.084 29.6628 12.084C29.2148 12.084 28.8108 12.012 28.4508 11.868C28.0948 11.72 27.7908 11.51 27.5388 11.238C27.2868 10.966 27.0928 10.638 26.9568 10.254C26.8248 9.87 26.7588 9.438 26.7588 8.958C26.7588 8.482 26.8248 8.052 26.9568 7.668C27.0928 7.28 27.2868 6.95 27.5388 6.678C27.7908 6.406 28.0948 6.196 28.4508 6.048C28.8108 5.9 29.2148 5.826 29.6628 5.826ZM29.6628 11.25C30.2628 11.25 30.7108 11.05 31.0068 10.65C31.3028 10.246 31.4508 9.684 31.4508 8.964C31.4508 8.24 31.3028 7.676 31.0068 7.272C30.7108 6.868 30.2628 6.666 29.6628 6.666C29.3588 6.666 29.0928 6.718 28.8648 6.822C28.6408 6.926 28.4528 7.076 28.3008 7.272C28.1528 7.468 28.0408 7.71 27.9648 7.998C27.8928 8.282 27.8568 8.604 27.8568 8.964C27.8568 9.684 28.0048 10.246 28.3008 10.65C28.6008 11.05 29.0548 11.25 29.6628 11.25ZM33.4294 12V5.922H34.0714C34.2234 5.922 34.3174 5.996 34.3534 6.144L34.4314 6.768C34.6554 6.492 34.9074 6.266 35.1874 6.09C35.4674 5.914 35.7914 5.826 36.1594 5.826C36.5674 5.826 36.8974 5.94 37.1494 6.168C37.4054 6.396 37.5894 6.704 37.7014 7.092C37.7894 6.872 37.9014 6.682 38.0374 6.522C38.1774 6.362 38.3334 6.23 38.5054 6.126C38.6774 6.022 38.8594 5.946 39.0514 5.898C39.2474 5.85 39.4454 5.826 39.6454 5.826C39.9654 5.826 40.2494 5.878 40.4974 5.982C40.7494 6.082 40.9614 6.23 41.1334 6.426C41.3094 6.622 41.4434 6.864 41.5354 7.152C41.6274 7.436 41.6734 7.762 41.6734 8.13V12H40.5994V8.13C40.5994 7.654 40.4954 7.294 40.2874 7.05C40.0794 6.802 39.7794 6.678 39.3874 6.678C39.2114 6.678 39.0434 6.71 38.8834 6.774C38.7274 6.834 38.5894 6.924 38.4694 7.044C38.3494 7.164 38.2534 7.316 38.1814 7.5C38.1134 7.68 38.0794 7.89 38.0794 8.13V12H37.0054V8.13C37.0054 7.642 36.9074 7.278 36.7114 7.038C36.5154 6.798 36.2294 6.678 35.8534 6.678C35.5894 6.678 35.3454 6.75 35.1214 6.894C34.8974 7.034 34.6914 7.226 34.5034 7.47V12H33.4294ZM43.8906 10.536C44.0866 10.8 44.3006 10.986 44.5326 11.094C44.7646 11.202 45.0246 11.256 45.3126 11.256C45.8806 11.256 46.3166 11.054 46.6206 10.65C46.9246 10.246 47.0766 9.67 47.0766 8.922C47.0766 8.526 47.0406 8.186 46.9686 7.902C46.9006 7.618 46.8006 7.386 46.6686 7.206C46.5366 7.022 46.3746 6.888 46.1826 6.804C45.9906 6.72 45.7726 6.678 45.5286 6.678C45.1806 6.678 44.8746 6.758 44.6106 6.918C44.3506 7.078 44.1106 7.304 43.8906 7.596V10.536ZM43.8366 6.864C44.0926 6.548 44.3886 6.294 44.7246 6.102C45.0606 5.91 45.4446 5.814 45.8766 5.814C46.2286 5.814 46.5466 5.882 46.8306 6.018C47.1146 6.15 47.3566 6.348 47.5566 6.612C47.7566 6.872 47.9106 7.196 48.0186 7.584C48.1266 7.972 48.1806 8.418 48.1806 8.922C48.1806 9.37 48.1206 9.788 48.0006 10.176C47.8806 10.56 47.7066 10.894 47.4786 11.178C47.2546 11.458 46.9786 11.68 46.6506 11.844C46.3266 12.004 45.9606 12.084 45.5526 12.084C45.1806 12.084 44.8606 12.022 44.5926 11.898C44.3286 11.77 44.0946 11.594 43.8906 11.37V14.058H42.8166V5.922H43.4586C43.6106 5.922 43.7046 5.996 43.7406 6.144L43.8366 6.864ZM50.8472 12.096C50.3672 12.096 49.9972 11.962 49.7372 11.694C49.4812 11.426 49.3532 11.04 49.3532 10.536V6.816H48.6212C48.5572 6.816 48.5032 6.798 48.4592 6.762C48.4152 6.722 48.3932 6.662 48.3932 6.582V6.156L49.3892 6.03L49.6352 4.152C49.6472 4.092 49.6732 4.044 49.7132 4.008C49.7572 3.968 49.8132 3.948 49.8812 3.948H50.4212V6.042H52.1792V6.816H50.4212V10.464C50.4212 10.72 50.4832 10.91 50.6072 11.034C50.7312 11.158 50.8912 11.22 51.0872 11.22C51.1992 11.22 51.2952 11.206 51.3752 11.178C51.4592 11.146 51.5312 11.112 51.5912 11.076C51.6512 11.04 51.7012 11.008 51.7412 10.98C51.7852 10.948 51.8232 10.932 51.8552 10.932C51.9112 10.932 51.9612 10.966 52.0052 11.034L52.3172 11.544C52.1332 11.716 51.9112 11.852 51.6512 11.952C51.3912 12.048 51.1232 12.096 50.8472 12.096ZM55.5919 7.86C55.9239 7.86 56.2159 7.816 56.4679 7.728C56.7239 7.64 56.9379 7.518 57.1099 7.362C57.2859 7.202 57.4179 7.012 57.5059 6.792C57.5939 6.572 57.6379 6.33 57.6379 6.066C57.6379 5.518 57.4679 5.09 57.1279 4.782C56.7919 4.474 56.2799 4.32 55.5919 4.32H54.2119V7.86H55.5919ZM55.5919 3.402C56.1359 3.402 56.6079 3.466 57.0079 3.594C57.4119 3.718 57.7459 3.896 58.0099 4.128C58.2739 4.36 58.4699 4.64 58.5979 4.968C58.7299 5.296 58.7959 5.662 58.7959 6.066C58.7959 6.466 58.7259 6.832 58.5859 7.164C58.4459 7.496 58.2399 7.782 57.9679 8.022C57.6999 8.262 57.3659 8.45 56.9659 8.586C56.5699 8.718 56.1119 8.784 55.5919 8.784H54.2119V12H53.0539V3.402H55.5919ZM60.4258 7.14C60.6178 6.724 60.8538 6.4 61.1338 6.168C61.4138 5.932 61.7558 5.814 62.1598 5.814C62.2878 5.814 62.4098 5.828 62.5258 5.856C62.6458 5.884 62.7518 5.928 62.8438 5.988L62.7658 6.786C62.7418 6.886 62.6818 6.936 62.5858 6.936C62.5298 6.936 62.4478 6.924 62.3398 6.9C62.2318 6.876 62.1098 6.864 61.9738 6.864C61.7818 6.864 61.6098 6.892 61.4578 6.948C61.3098 7.004 61.1758 7.088 61.0558 7.2C60.9398 7.308 60.8338 7.444 60.7378 7.608C60.6458 7.768 60.5618 7.952 60.4858 8.16V12H59.4118V5.922H60.0238C60.1398 5.922 60.2198 5.944 60.2638 5.988C60.3078 6.032 60.3378 6.108 60.3538 6.216L60.4258 7.14ZM65.6188 5.826C66.0628 5.826 66.4628 5.9 66.8188 6.048C67.1748 6.196 67.4788 6.406 67.7308 6.678C67.9828 6.95 68.1748 7.28 68.3068 7.668C68.4428 8.052 68.5108 8.482 68.5108 8.958C68.5108 9.438 68.4428 9.87 68.3068 10.254C68.1748 10.638 67.9828 10.966 67.7308 11.238C67.4788 11.51 67.1748 11.72 66.8188 11.868C66.4628 12.012 66.0628 12.084 65.6188 12.084C65.1708 12.084 64.7668 12.012 64.4068 11.868C64.0508 11.72 63.7468 11.51 63.4948 11.238C63.2428 10.966 63.0488 10.638 62.9128 10.254C62.7808 9.87 62.7148 9.438 62.7148 8.958C62.7148 8.482 62.7808 8.052 62.9128 7.668C63.0488 7.28 63.2428 6.95 63.4948 6.678C63.7468 6.406 64.0508 6.196 64.4068 6.048C64.7668 5.9 65.1708 5.826 65.6188 5.826ZM65.6188 11.25C66.2188 11.25 66.6668 11.05 66.9628 10.65C67.2588 10.246 67.4068 9.684 67.4068 8.964C67.4068 8.24 67.2588 7.676 66.9628 7.272C66.6668 6.868 66.2188 6.666 65.6188 6.666C65.3148 6.666 65.0488 6.718 64.8208 6.822C64.5968 6.926 64.4088 7.076 64.2568 7.272C64.1088 7.468 63.9968 7.71 63.9208 7.998C63.8488 8.282 63.8128 8.604 63.8128 8.964C63.8128 9.684 63.9608 10.246 64.2568 10.65C64.5568 11.05 65.0108 11.25 65.6188 11.25Z" fill="#F0F5FF"/>
</svg>
