<svg width="69" height="15" viewBox="0 0 69 15" fill="none" xmlns="http://www.w3.org/2000/svg">
<circle cx="7" cy="7" r="7" fill="#141623"/>
<path d="M10 7.22222C10 7.4285 9.92976 7.62633 9.80473 7.77219C9.67971 7.91806 9.51014 8 9.33333 8H5.33333L4 11V4.77778C4 4.5715 4.07023 4.37367 4.19526 4.22781C4.32028 4.08194 4.48985 4 4.66666 4H9.33333C9.51014 4 9.67971 4.08194 9.80473 4.22781C9.92976 4.37367 10 4.5715 10 4.77778V7.22222Z" fill="#364FC7" stroke="#364FC7" stroke-width="2" stroke-linecap="round" stroke-linejoin="round"/>
<path d="M18.636 7.86C18.968 7.86 19.26 7.816 19.512 7.728C19.768 7.64 19.982 7.518 20.154 7.362C20.33 7.202 20.462 7.012 20.55 6.792C20.638 6.572 20.682 6.33 20.682 6.066C20.682 5.518 20.512 5.09 20.172 4.782C19.836 4.474 19.324 4.32 18.636 4.32H17.256V7.86H18.636ZM18.636 3.402C19.18 3.402 19.652 3.466 20.052 3.594C20.456 3.718 20.79 3.896 21.054 4.128C21.318 4.36 21.514 4.64 21.642 4.968C21.774 5.296 21.84 5.662 21.84 6.066C21.84 6.466 21.77 6.832 21.63 7.164C21.49 7.496 21.284 7.782 21.012 8.022C20.744 8.262 20.41 8.45 20.01 8.586C19.614 8.718 19.156 8.784 18.636 8.784H17.256V12H16.098V3.402H18.636ZM23.4698 7.14C23.6618 6.724 23.8978 6.4 24.1778 6.168C24.4578 5.932 24.7998 5.814 25.2038 5.814C25.3318 5.814 25.4538 5.828 25.5698 5.856C25.6898 5.884 25.7958 5.928 25.8878 5.988L25.8098 6.786C25.7858 6.886 25.7258 6.936 25.6298 6.936C25.5738 6.936 25.4918 6.924 25.3838 6.9C25.2758 6.876 25.1538 6.864 25.0178 6.864C24.8258 6.864 24.6538 6.892 24.5018 6.948C24.3538 7.004 24.2198 7.088 24.0998 7.2C23.9838 7.308 23.8778 7.444 23.7818 7.608C23.6898 7.768 23.6058 7.952 23.5298 8.16V12H22.4558V5.922H23.0678C23.1838 5.922 23.2638 5.944 23.3078 5.988C23.3518 6.032 23.3818 6.108 23.3978 6.216L23.4698 7.14ZM28.6628 5.826C29.1068 5.826 29.5068 5.9 29.8628 6.048C30.2188 6.196 30.5228 6.406 30.7748 6.678C31.0268 6.95 31.2188 7.28 31.3508 7.668C31.4868 8.052 31.5548 8.482 31.5548 8.958C31.5548 9.438 31.4868 9.87 31.3508 10.254C31.2188 10.638 31.0268 10.966 30.7748 11.238C30.5228 11.51 30.2188 11.72 29.8628 11.868C29.5068 12.012 29.1068 12.084 28.6628 12.084C28.2148 12.084 27.8108 12.012 27.4508 11.868C27.0948 11.72 26.7908 11.51 26.5388 11.238C26.2868 10.966 26.0928 10.638 25.9568 10.254C25.8248 9.87 25.7588 9.438 25.7588 8.958C25.7588 8.482 25.8248 8.052 25.9568 7.668C26.0928 7.28 26.2868 6.95 26.5388 6.678C26.7908 6.406 27.0948 6.196 27.4508 6.048C27.8108 5.9 28.2148 5.826 28.6628 5.826ZM28.6628 11.25C29.2628 11.25 29.7108 11.05 30.0068 10.65C30.3028 10.246 30.4508 9.684 30.4508 8.964C30.4508 8.24 30.3028 7.676 30.0068 7.272C29.7108 6.868 29.2628 6.666 28.6628 6.666C28.3588 6.666 28.0928 6.718 27.8648 6.822C27.6408 6.926 27.4528 7.076 27.3008 7.272C27.1528 7.468 27.0408 7.71 26.9648 7.998C26.8928 8.282 26.8568 8.604 26.8568 8.964C26.8568 9.684 27.0048 10.246 27.3008 10.65C27.6008 11.05 28.0548 11.25 28.6628 11.25ZM32.4294 12V5.922H33.0714C33.2234 5.922 33.3174 5.996 33.3534 6.144L33.4314 6.768C33.6554 6.492 33.9074 6.266 34.1874 6.09C34.4674 5.914 34.7914 5.826 35.1594 5.826C35.5674 5.826 35.8974 5.94 36.1494 6.168C36.4054 6.396 36.5894 6.704 36.7014 7.092C36.7894 6.872 36.9014 6.682 37.0374 6.522C37.1774 6.362 37.3334 6.23 37.5054 6.126C37.6774 6.022 37.8594 5.946 38.0514 5.898C38.2474 5.85 38.4454 5.826 38.6454 5.826C38.9654 5.826 39.2494 5.878 39.4974 5.982C39.7494 6.082 39.9614 6.23 40.1334 6.426C40.3094 6.622 40.4434 6.864 40.5354 7.152C40.6274 7.436 40.6734 7.762 40.6734 8.13V12H39.5994V8.13C39.5994 7.654 39.4954 7.294 39.2874 7.05C39.0794 6.802 38.7794 6.678 38.3874 6.678C38.2114 6.678 38.0434 6.71 37.8834 6.774C37.7274 6.834 37.5894 6.924 37.4694 7.044C37.3494 7.164 37.2534 7.316 37.1814 7.5C37.1134 7.68 37.0794 7.89 37.0794 8.13V12H36.0054V8.13C36.0054 7.642 35.9074 7.278 35.7114 7.038C35.5154 6.798 35.2294 6.678 34.8534 6.678C34.5894 6.678 34.3454 6.75 34.1214 6.894C33.8974 7.034 33.6914 7.226 33.5034 7.47V12H32.4294ZM42.8906 10.536C43.0866 10.8 43.3006 10.986 43.5326 11.094C43.7646 11.202 44.0246 11.256 44.3126 11.256C44.8806 11.256 45.3166 11.054 45.6206 10.65C45.9246 10.246 46.0766 9.67 46.0766 8.922C46.0766 8.526 46.0406 8.186 45.9686 7.902C45.9006 7.618 45.8006 7.386 45.6686 7.206C45.5366 7.022 45.3746 6.888 45.1826 6.804C44.9906 6.72 44.7726 6.678 44.5286 6.678C44.1806 6.678 43.8746 6.758 43.6106 6.918C43.3506 7.078 43.1106 7.304 42.8906 7.596V10.536ZM42.8366 6.864C43.0926 6.548 43.3886 6.294 43.7246 6.102C44.0606 5.91 44.4446 5.814 44.8766 5.814C45.2286 5.814 45.5466 5.882 45.8306 6.018C46.1146 6.15 46.3566 6.348 46.5566 6.612C46.7566 6.872 46.9106 7.196 47.0186 7.584C47.1266 7.972 47.1806 8.418 47.1806 8.922C47.1806 9.37 47.1206 9.788 47.0006 10.176C46.8806 10.56 46.7066 10.894 46.4786 11.178C46.2546 11.458 45.9786 11.68 45.6506 11.844C45.3266 12.004 44.9606 12.084 44.5526 12.084C44.1806 12.084 43.8606 12.022 43.5926 11.898C43.3286 11.77 43.0946 11.594 42.8906 11.37V14.058H41.8166V5.922H42.4586C42.6106 5.922 42.7046 5.996 42.7406 6.144L42.8366 6.864ZM49.8472 12.096C49.3672 12.096 48.9972 11.962 48.7372 11.694C48.4812 11.426 48.3532 11.04 48.3532 10.536V6.816H47.6212C47.5572 6.816 47.5032 6.798 47.4592 6.762C47.4152 6.722 47.3932 6.662 47.3932 6.582V6.156L48.3892 6.03L48.6352 4.152C48.6472 4.092 48.6732 4.044 48.7132 4.008C48.7572 3.968 48.8132 3.948 48.8812 3.948H49.4212V6.042H51.1792V6.816H49.4212V10.464C49.4212 10.72 49.4832 10.91 49.6072 11.034C49.7312 11.158 49.8912 11.22 50.0872 11.22C50.1992 11.22 50.2952 11.206 50.3752 11.178C50.4592 11.146 50.5312 11.112 50.5912 11.076C50.6512 11.04 50.7012 11.008 50.7412 10.98C50.7852 10.948 50.8232 10.932 50.8552 10.932C50.9112 10.932 50.9612 10.966 51.0052 11.034L51.3172 11.544C51.1332 11.716 50.9112 11.852 50.6512 11.952C50.3912 12.048 50.1232 12.096 49.8472 12.096ZM54.5919 7.86C54.9239 7.86 55.2159 7.816 55.4679 7.728C55.7239 7.64 55.9379 7.518 56.1099 7.362C56.2859 7.202 56.4179 7.012 56.5059 6.792C56.5939 6.572 56.6379 6.33 56.6379 6.066C56.6379 5.518 56.4679 5.09 56.1279 4.782C55.7919 4.474 55.2799 4.32 54.5919 4.32H53.2119V7.86H54.5919ZM54.5919 3.402C55.1359 3.402 55.6079 3.466 56.0079 3.594C56.4119 3.718 56.7459 3.896 57.0099 4.128C57.2739 4.36 57.4699 4.64 57.5979 4.968C57.7299 5.296 57.7959 5.662 57.7959 6.066C57.7959 6.466 57.7259 6.832 57.5859 7.164C57.4459 7.496 57.2399 7.782 56.9679 8.022C56.6999 8.262 56.3659 8.45 55.9659 8.586C55.5699 8.718 55.1119 8.784 54.5919 8.784H53.2119V12H52.0539V3.402H54.5919ZM59.4258 7.14C59.6178 6.724 59.8538 6.4 60.1338 6.168C60.4138 5.932 60.7558 5.814 61.1598 5.814C61.2878 5.814 61.4098 5.828 61.5258 5.856C61.6458 5.884 61.7518 5.928 61.8438 5.988L61.7658 6.786C61.7418 6.886 61.6818 6.936 61.5858 6.936C61.5298 6.936 61.4478 6.924 61.3398 6.9C61.2318 6.876 61.1098 6.864 60.9738 6.864C60.7818 6.864 60.6098 6.892 60.4578 6.948C60.3098 7.004 60.1758 7.088 60.0558 7.2C59.9398 7.308 59.8338 7.444 59.7378 7.608C59.6458 7.768 59.5618 7.952 59.4858 8.16V12H58.4118V5.922H59.0238C59.1398 5.922 59.2198 5.944 59.2638 5.988C59.3078 6.032 59.3378 6.108 59.3538 6.216L59.4258 7.14ZM64.6188 5.826C65.0628 5.826 65.4628 5.9 65.8188 6.048C66.1748 6.196 66.4788 6.406 66.7308 6.678C66.9828 6.95 67.1748 7.28 67.3068 7.668C67.4428 8.052 67.5108 8.482 67.5108 8.958C67.5108 9.438 67.4428 9.87 67.3068 10.254C67.1748 10.638 66.9828 10.966 66.7308 11.238C66.4788 11.51 66.1748 11.72 65.8188 11.868C65.4628 12.012 65.0628 12.084 64.6188 12.084C64.1708 12.084 63.7668 12.012 63.4068 11.868C63.0508 11.72 62.7468 11.51 62.4948 11.238C62.2428 10.966 62.0488 10.638 61.9128 10.254C61.7808 9.87 61.7148 9.438 61.7148 8.958C61.7148 8.482 61.7808 8.052 61.9128 7.668C62.0488 7.28 62.2428 6.95 62.4948 6.678C62.7468 6.406 63.0508 6.196 63.4068 6.048C63.7668 5.9 64.1708 5.826 64.6188 5.826ZM64.6188 11.25C65.2188 11.25 65.6668 11.05 65.9628 10.65C66.2588 10.246 66.4068 9.684 66.4068 8.964C66.4068 8.24 66.2588 7.676 65.9628 7.272C65.6668 6.868 65.2188 6.666 64.6188 6.666C64.3148 6.666 64.0488 6.718 63.8208 6.822C63.5968 6.926 63.4088 7.076 63.2568 7.272C63.1088 7.468 62.9968 7.71 62.9208 7.998C62.8488 8.282 62.8128 8.604 62.8128 8.964C62.8128 9.684 62.9608 10.246 63.2568 10.65C63.5568 11.05 64.0108 11.25 64.6188 11.25Z" fill="#141623"/>
</svg>
